<svg fill="none" xmlns="http://www.w3.org/2000/svg" width="204" height="38" viewBox="0 0 204 38">
  <g clip-path="url(#a)" fill="#fff">
    <path d="M203.942 29.097c-1.08 0-1.464-.575-1.464-2.182v-6.692c0-3.55-1.726-5.397-4.964-5.397-3.238 0-5.277 1.56-6.716 3.622l.288.288c1.175-1.007 2.542-1.415 3.693-1.415 2.159 0 2.879 1.319 2.879 3.67v.647c-3.406.696-7.388 1.535-7.388 5.636 0 2.063 1.319 3.574 3.43 3.574 1.799 0 3.142-.935 4.101-2.278.288 1.319 1.368 2.23 3.166 2.23 1.368 0 2.327-.575 3.022-1.535v-.24l-.047.072Zm-6.308-1.199c-.36.12-.768.216-1.248.216-1.319 0-1.918-1.08-1.918-2.183 0-1.847 1.079-2.902 3.166-3.382v5.35ZM76.031 14.826c-4.509 0-7.435 2.807-7.435 7.771 0 4.486 2.782 8.3 7.315 8.3 3.43 0 5.685-1.872 6.476-4.726l-.24-.12c-.575.624-1.703 1.463-3.765 1.463-2.639 0-4.725-1.367-4.87-6.068h8.9c.095-3.574-2.231-6.62-6.38-6.62Zm1.727 5.685-4.245.048c0-2.71.767-4.773 2.326-4.773 1.176 0 1.92.743 1.92 3.574v1.151Zm-7.963-5.445-.767-6.74c-1.727.12-3.622.264-5.517.264h-7.435c-2.039 0-3.742-.143-5.468-.263l-.768 6.74h.384c3.19-4.582 4.749-5.445 5.948-5.47h.983v14.536c0 2.902-.024 4.125-.48 6.164v.143h6.429v-.143c-.528-2.04-.6-3.31-.6-6.164V9.55h.983c1.2.048 2.735.935 5.949 5.492h.383l-.024.024Zm51.064-2.59.192-1.271H109.97l-.168 1.27h11.057Zm1.415 2.83h-5.277v.144c.24.72.48 1.799.48 3.574v7.219c-.48.96-1.199 1.583-2.183 1.583-1.343 0-1.919-.96-1.919-2.183V15.306h-5.012v.168c.12.743.24 1.799.24 3.574v7.075c0 2.878 1.439 4.75 4.029 4.75s4.269-2.064 4.893-3.31h.096v2.877h5.276v-.144c-.455-1.87-.623-2.758-.623-6.068v-8.922Zm25.999-.48c-4.509 0-7.435 2.807-7.435 7.771 0 4.486 2.782 8.3 7.315 8.3 3.43 0 5.685-1.872 6.476-4.726l-.24-.12c-.575.624-1.703 1.463-3.765 1.463-2.639 0-4.725-1.367-4.869-6.068h8.898c.096-3.574-2.231-6.62-6.38-6.62ZM150 20.511l-4.245.048c0-2.71.767-4.773 2.326-4.773 1.176 0 1.919.743 1.919 3.574v1.151Zm21.131-1.535c0-2.543-1.847-4.15-4.486-4.15-2.638 0-3.645 1.583-4.461 2.879h-.12v-2.879l-5.444 1.583v.144c.48 1.2.767 2.423.767 4.653v3.982c0 2.518-.12 3.765-.287 5.109v.143h5.396v-.143c-.216-1.368-.336-2.639-.336-5.11v-5.995c.288-.888.96-1.967 2.087-1.967 1.415 0 2.039 1.08 2.039 2.35v5.637c0 2.398-.144 3.741-.336 5.085v.143h5.708v-.143c-.36-1.368-.575-2.59-.575-5.133v-6.188h.048Zm12.616 8.898-3.454-.384c-2.039-.24-2.711-.407-2.711-1.295 0-.288.096-.6.264-.815a8.589 8.589 0 0 0 3.022.527c4.15 0 6.596-1.99 6.596-5.492 0-1.56-.575-2.758-1.487-3.622l3.526.24h.12v-3.454l-.168-.048-4.245 2.638c-1.104-.839-2.303-1.319-4.366-1.319-3.861 0-6.595 2.327-6.595 5.493 0 2.086 1.007 3.645 2.686 4.58-1.487.744-2.806 1.992-2.806 3.79 0 1.463.767 2.303 2.11 2.83-1.751.216-3.453 1.008-3.453 2.471 0 2.183 3.022 3.286 7.555 3.286 4.869 0 8.682-1.943 8.682-5.205 0-2.662-2.47-3.933-5.252-4.245l-.024.024ZM180.82 15.81c1.439 0 1.967 1.415 1.967 4.533 0 3.118-.599 4.629-1.943 4.629-1.343 0-1.918-1.44-1.918-4.63s.455-4.532 1.87-4.532h.024Zm.864 20.459c-2.926 0-4.989-.96-4.989-2.926 0-.576.168-1.104.456-1.536.623.144 1.343.264 2.11.36l2.663.288c2.806.336 4.101.528 4.101 1.799s-1.823 1.99-4.341 1.99v.025Zm-47.058-16.238 1.055-.935c1.415-1.223 2.519-2.159 4.581-3.55v-.264h-5.132l-1.08 4.126-3.19 2.518V7.176l-5.396 1.726v.144c.407 1.247.599 2.423.599 4.653v12.04c0 2.423-.048 3.406-.287 4.534v.144h5.396v-.144c-.216-1.08-.288-2.207-.288-4.534v-2.758l4.054 7.436h5.972v-.264c-.744-.936-1.247-1.583-2.039-2.926l-4.221-7.196h-.024ZM98.457 8.567h-8.035v.144c.456 2.062.48 3.214.48 6.164v9.258c0 2.902-.024 4.125-.48 6.164v.144h6.428v-.144c-.528-2.039-.6-3.31-.6-6.164V21.47h1.607c5.973 0 8.611-3.07 8.611-6.908 0-3.454-2.063-5.996-8.011-5.996Zm-1.343 11.92h-.864V9.598c.36-.024.6-.024.888-.024 2.422 0 3.861 2.11 3.861 5.013 0 2.902-1.127 5.924-3.885 5.924v-.024ZM0 .436c2.566 11.44 5.516 22.905 9.09 34.418 4.126 1.535 10.218 2.686 17.101 2.878.024 0 .048-.048 0-.048-3.693-1.103-6.86-2.278-9.642-3.813-.048 0 0-.096 0-.072 4.653.36 11.49.383 18.732-2.135 2.879-9.378 5.637-20.003 8.035-31.3 0-.048-.048-.096-.096-.048-6.57 6.62-17.964 12.184-27.318 13.767C10.362 10.63 5.708 6.288.096.388.048.34 0 .364 0 .436Zm3.838 13.36c7.555 4.269 15.637 5.972 23.48 6.547.048 0 .048.072 0 .072-3.453 1.487-7.363 2.614-12.088 3.43-4.485-2.974-8.634-6.596-11.44-10.002-.024-.048 0-.096.048-.072m3.31 12.352a44.128 44.128 0 0 0 19.187 3.79c.048 0 .072.072 0 .072-3.55 1.631-7.243 2.83-10.53 3.382-3.045-1.775-5.78-4.053-8.73-7.195-.024-.024 0-.096.048-.073m8.85-1.846c5.71 1.079 13.144 1.607 21.011-.936.048 0 .072.048.048.072-2.878 2.399-6.356 4.533-9.93 6.212-3.525-.935-7.387-2.83-11.152-5.276-.048-.024 0-.096.024-.072Zm.768-9.786c7.795 1.151 16.166.528 23.194-2.518.047 0 .071.047.047.072-3.645 3.237-7.267 5.852-11.872 7.986-4.221-1.703-7.987-3.43-11.393-5.444-.048-.024 0-.096.024-.072"/>
  </g>
  <defs>
    <clipPath id="a">
      <path fill="#fff" transform="translate(0 .268)" d="M0 0h203.966v37.464H0z"/>
    </clipPath>
  </defs>
</svg>
